<svg version="1.1" xmlns="http://www.w3.org/2000/svg" width="100" height="100">
    <path d="M0 0 C0.81345886 -0.00700928 1.62691772 -0.01401855 2.46502686 -0.02124023 C5.15151192 -0.03883246 7.8369419 -0.02719351 10.5234375 -0.01367188 C12.39144086 -0.01636645 14.25944285 -0.02024857 16.12744141 -0.02526855 C20.04147705 -0.03116525 23.95514745 -0.02259515 27.86914062 -0.00390625 C32.88653639 0.01888345 37.90307631 0.00576128 42.92044067 -0.01819611 C46.77749074 -0.03264946 50.63433787 -0.02805023 54.49139404 -0.01768494 C56.34137066 -0.01501637 58.19136569 -0.01829198 60.0413208 -0.02760315 C62.62700207 -0.03776125 65.21129701 -0.02227898 67.796875 0 C68.56167175 -0.00809692 69.32646851 -0.01619385 70.11444092 -0.02453613 C73.46463444 0.0289493 75.56017607 0.29199198 78.37442017 2.16880798 C80.3263151 5.17701035 80.39368553 7.03878844 80.38427734 10.61547852 C80.39350723 12.46243065 80.39350723 12.46243065 80.40292358 14.34669495 C80.3891282 15.68621571 80.37459427 17.02572904 80.359375 18.36523438 C80.35698956 19.74238411 80.35608547 21.11953714 80.3565979 22.49668884 C80.35347336 25.37926684 80.33693424 28.26134624 80.31005859 31.14379883 C80.27604685 34.83835007 80.2684311 38.53235463 80.26994896 42.22704411 C80.26940515 45.06922116 80.25843679 47.91127875 80.24394608 50.75341606 C80.23758338 52.11576878 80.23364041 53.47813502 80.23215866 54.84050179 C80.22782205 56.74340814 80.20873384 58.64626366 80.18896484 60.54907227 C80.17752945 62.17311729 80.17752945 62.17311729 80.16586304 63.82997131 C79.8984375 66.51757812 79.8984375 66.51757812 77.8984375 69.51757812 C74.24871896 70.73415097 70.89388735 70.66513882 67.09399414 70.6628418 C66.30018845 70.66620041 65.50638275 70.66955902 64.68852234 70.67301941 C62.0618636 70.68252607 59.43526862 70.68447232 56.80859375 70.68554688 C54.98400343 70.68875945 53.15941338 70.69212352 51.33482361 70.69563293 C47.50909833 70.70162334 43.68339565 70.7034729 39.85766602 70.70288086 C34.95369891 70.7027792 30.04987645 70.71643618 25.14594364 70.73365307 C21.37730747 70.74476685 17.60870635 70.74680027 13.84005547 70.74627113 C12.03194111 70.747452 10.22382586 70.75187977 8.41572762 70.7596035 C5.88780683 70.76939162 3.36020116 70.76653014 0.83227539 70.76049805 C0.08460907 70.76611755 -0.66305725 70.77173706 -1.43338013 70.77752686 C-5.1192039 70.75515728 -8.03324184 70.69120229 -11.1015625 68.51757812 C-12.45180674 65.81708964 -12.25112938 63.68618149 -12.27856445 60.66259766 C-12.29139969 59.43437286 -12.30423492 58.20614807 -12.31745911 56.94070435 C-12.32562591 55.5939372 -12.33306976 54.2471655 -12.33984375 52.90039062 C-12.34391928 52.22319851 -12.3479948 51.54600639 -12.35219383 50.8482933 C-12.37305068 47.26458796 -12.3873545 43.68092088 -12.39672852 40.09716797 C-12.40779769 36.395797 -12.44220342 32.69502646 -12.48190022 28.99386787 C-12.50804387 26.1473987 -12.51641823 23.30107316 -12.52000999 20.45449448 C-12.52488119 19.09012671 -12.53651055 17.72576557 -12.55504799 16.36151505 C-12.57938843 14.45160644 -12.57605963 12.54140599 -12.5715332 10.63134766 C-12.57739944 9.54483917 -12.58326569 8.45833069 -12.58930969 7.33889771 C-12.1015625 4.51757812 -12.1015625 4.51757812 -10.57853699 2.16781616 C-7.13077826 -0.12918876 -4.00557618 -0.04240714 0 0 Z " fill="#DEE1E2" transform="translate(16.1015625,13.482421875)"/>
    <path d="M0 0 C0.81345886 -0.00700928 1.62691772 -0.01401855 2.46502686 -0.02124023 C5.15151192 -0.03883246 7.8369419 -0.02719351 10.5234375 -0.01367188 C12.39144086 -0.01636645 14.25944285 -0.02024857 16.12744141 -0.02526855 C20.04147705 -0.03116525 23.95514745 -0.02259515 27.86914062 -0.00390625 C32.88653639 0.01888345 37.90307631 0.00576128 42.92044067 -0.01819611 C46.77749074 -0.03264946 50.63433787 -0.02805023 54.49139404 -0.01768494 C56.34137066 -0.01501637 58.19136569 -0.01829198 60.0413208 -0.02760315 C62.62700207 -0.03776125 65.21129701 -0.02227898 67.796875 0 C68.56167175 -0.00809692 69.32646851 -0.01619385 70.11444092 -0.02453613 C73.59745216 0.03106971 75.53860028 0.24520358 78.3527832 2.37536621 C79.8984375 4.51757813 79.8984375 4.51757813 80.73046875 7.31054688 C79.34416906 12.6539837 74.981889 14.81163056 70.5859375 17.83007812 C69.26432617 18.77850586 69.26432617 18.77850586 67.91601562 19.74609375 C61.45011898 24.3336843 61.45011898 24.3336843 57.8984375 25.51757812 C57.558125 24.99808594 57.2178125 24.47859375 56.8671875 23.94335938 C53.32366104 18.84482795 49.95051727 14.49544154 43.8984375 12.51757812 C34.95714798 11.4562696 25.72020273 11.50796032 17.8984375 16.51757812 C14.75351242 19.31140706 12.53850602 22.64105253 10.8984375 26.51757812 C5.70168303 23.70906255 1.16836138 20.54622208 -3.4140625 16.83007812 C-7.54488858 13.35377161 -7.54488858 13.35377161 -12.1015625 10.51757812 C-12.40937292 7.13166354 -12.56841629 5.1890486 -10.59228516 2.34680176 C-7.16070572 -0.17340104 -4.09715659 -0.04337671 0 0 Z " fill="#ECEDEE" transform="translate(16.1015625,13.482421875)"/>
    <path d="M0 0 C4.43660192 3.45287644 8.58100998 7.55552994 10.375 12.9375 C11.38995536 26.33158302 11.38995536 26.33158302 8.6875 30.625 C5.35314768 33.95935232 3.03426545 35.70046208 -1.6875 36.375 C-5.26488574 35.84219787 -6.38328653 34.69653196 -8.625 31.9375 C-9.32625 32.5975 -10.0275 33.2575 -10.75 33.9375 C-13.625 35.9375 -13.625 35.9375 -16.5625 36.5 C-20.87605553 35.70771429 -22.52969399 34.03280601 -25.625 30.9375 C-27.31758939 25.85973182 -27.80070701 19.95419214 -25.82421875 14.8828125 C-24.11588192 12.42891286 -22.35809153 11.09142313 -19.4296875 10.4765625 C-15.70101424 10.31658642 -13.31344374 10.53450854 -10.0625 12.4375 C-9.588125 12.9325 -9.11375 13.4275 -8.625 13.9375 C-8.625 12.9475 -8.625 11.9575 -8.625 10.9375 C-6.645 10.9375 -4.665 10.9375 -2.625 10.9375 C-2.625 17.2075 -2.625 23.4775 -2.625 29.9375 C-0.975 29.6075 0.675 29.2775 2.375 28.9375 C4.38177412 23.79514131 5.46688555 19.24417614 3.6875 13.85546875 C1.53156945 9.01360806 -0.820293 6.43995156 -5.625 3.9375 C-11.14300965 2.23340879 -17.53974792 1.75047101 -22.98046875 3.84375 C-28.37104577 6.99920972 -31.63017372 10.95302117 -33.625 16.9375 C-34.31972361 23.98723631 -34.10555749 30.1935295 -29.625 35.9375 C-24.08550852 40.9859911 -19.35569901 42.0900435 -11.9375 42 C-11.23560547 41.99548828 -10.53371094 41.99097656 -9.81054688 41.98632812 C-8.08199462 41.97456927 -6.35348635 41.95663454 -4.625 41.9375 C-4.625 43.5875 -4.625 45.2375 -4.625 46.9375 C-10.15501649 49.70250825 -18.79401446 48.49235826 -24.5625 46.75 C-31.065334 44.17026512 -35.52262662 39.90810603 -38.703125 33.72265625 C-41.23112115 26.08510856 -40.86202662 17.58554226 -37.4375 10.3125 C-33.87812808 4.33394494 -30.25612234 0.4148434 -23.484375 -1.55078125 C-16.09608492 -2.87300256 -6.71822089 -3.92219832 0 0 Z " fill="#379CD6" transform="translate(64.625,27.0625)"/>
    <path d="M0 0 C0.66 0 1.32 0 2 0 C2 16.5 2 33 2 50 C-3.47639167 46.34907222 -8.81223819 42.76153896 -14 38.75 C-14.57105469 38.316875 -15.14210938 37.88375 -15.73046875 37.4375 C-19.87671935 34.24656129 -19.87671935 34.24656129 -21 32 C-20.67 31.34 -20.34 30.68 -20 30 C-20.18820313 29.01515625 -20.37640625 28.0303125 -20.5703125 27.015625 C-21.73155365 19.13226961 -21.73155365 19.13226961 -20 15 C-15.22022786 9.66214486 -8.92097642 5.88573488 -2.85766602 2.16064453 C-1.0582513 1.13325435 -1.0582513 1.13325435 0 0 Z " fill="#C0C0C0" transform="translate(94,24)"/>
    <path d="M0 0 C4.52885029 1.81154012 6.82387695 3.28932471 10.4375 6.375 C13.34840803 8.85113514 15.87843292 10.9366808 19.27734375 12.70703125 C22.20898033 15.17599921 22.49464799 15.65535145 23.0703125 19.23828125 C23.3846169 25.85176959 23.40910399 32.13620529 18.97949219 37.40185547 C5.05565877 50 5.05565877 50 0 50 C0 33.5 0 17 0 0 Z " fill="#BEBEBE" transform="translate(4,24)"/>
    <path d="M0 0 C2.5625 0.3125 2.5625 0.3125 4.375 1.375 C6.23834949 4.41520179 5.92899683 6.83078011 5.5625 10.3125 C4.375 12.75 4.375 12.75 2.5625 14.3125 C0 14.75 0 14.75 -2.4375 14.3125 C-4.52690868 11.17838698 -4.71114412 10.33799528 -4.6875 6.75 C-4.69265625 5.96496094 -4.6978125 5.17992187 -4.703125 4.37109375 C-4.29014613 1.17050754 -3.12241226 0.40030926 0 0 Z " fill="#E3E9EC" transform="translate(49.4375,42.6875)"/>
    <path d="M0 0 C0.66 0 1.32 0 2 0 C2.375 2.25 2.375 2.25 2 5 C-0.68331987 7.12169478 -3.43249604 8.69442095 -6.4375 10.3125 C-9.55858929 12.36785148 -11.90650325 14.85108884 -14.44921875 17.57421875 C-16 19 -16 19 -18 19 C-18 20.98 -18 22.96 -18 25 C-18.33 25 -18.66 25 -19 25 C-19.98222653 21.5578339 -20.47800391 18.56699143 -20 15 C-17.3972165 11.71819666 -14.13484901 9.67217015 -10.625 7.4375 C-9.72265625 6.82326172 -8.8203125 6.20902344 -7.890625 5.57617188 C-6.22942493 4.44750366 -4.5578994 3.33378852 -2.87353516 2.23999023 C-1.06822499 1.13469014 -1.06822499 1.13469014 0 0 Z " fill="#AFAFAF" transform="translate(94,24)"/>
    <path d="M0 0 C0.66 0.33 1.32 0.66 2 1 C1.0479279 2.00596297 0.08812654 3.00461563 -0.875 4 C-1.40867187 4.556875 -1.94234375 5.11375 -2.4921875 5.6875 C-4 7 -4 7 -6 7 C-6 8.98 -6 10.96 -6 13 C-6.33 13 -6.66 13 -7 13 C-7.4375 9.875 -7.4375 9.875 -7 6 C-4.93418366 3.61317961 -2.58391118 1.79950957 0 0 Z " fill="#B0B4B7" transform="translate(82,36)"/>
</svg>
